<svg width="185" height="185" viewBox="0 0 185 185" fill="none" xmlns="http://www.w3.org/2000/svg">
<path d="M185 92.5C185 115.719 176.268 138.088 160.538 155.166C144.808 172.245 123.231 182.783 100.091 184.688C76.9504 186.593 53.9399 179.727 35.6283 165.451C17.3168 151.176 5.04356 130.536 1.24577 107.63C-2.55202 84.7241 2.40341 61.2277 15.128 41.8065C27.8527 22.3853 47.4158 8.45974 69.9327 2.79511C92.4497 -2.86953 116.273 0.14106 136.673 11.2291C157.073 22.3171 172.557 40.6715 180.05 62.6476L135.553 77.8202C131.868 67.0135 124.254 57.9878 114.222 52.5354C104.19 47.0829 92.4752 45.6024 81.4026 48.388C70.33 51.1735 60.7099 58.0214 54.4527 67.5717C48.1954 77.122 45.7586 88.6762 47.6261 99.9401C49.4937 111.204 55.529 121.354 64.5336 128.373C73.5382 135.393 84.8535 138.77 96.2326 137.833C107.612 136.896 118.222 131.714 125.957 123.316C133.693 114.918 137.986 103.918 137.986 92.5H185Z" fill="#EC6630"/>
</svg>
